<svg width="59" height="32" viewBox="0 0 59 32" fill="none" xmlns="http://www.w3.org/2000/svg">
<rect width="59" height="32" fill="white"/>
<g clip-path="url(#clip0_604_8817)">
<path d="M1 16V1L13.1483 1.02923L25.2966 1.05847V16V30.9415L13.1483 30.9707L1 31V16ZM24.4964 16V1.92052H13.2044H1.91248V16V30.0795H13.2044H24.4964V16ZM4.64993 24.1604V20.9997H13.2044H21.759V21.4594V21.9192H13.6012H5.44353L5.47444 24.1891L5.50535 26.4591L13.1805 26.4886L20.8557 26.5181L20.8226 25.5691L20.7894 24.6201L14.0598 24.5948L7.33029 24.5695L7.2949 24.1638L7.2595 23.7581H14.5092H21.7589V25.5396V27.3211H13.2044H4.6499L4.64993 24.1604ZM4.64993 18.701V18.2412H8.70148H12.753L12.7221 15.9713L12.6912 13.7013H8.67056H4.64991L4.64994 13.2703L4.64996 12.8393H13.2045H21.759V13.2416V13.6439H17.7289C15.5123 13.6439 13.6774 13.6653 13.6512 13.6915C13.6251 13.7177 13.6186 14.7521 13.6369 15.9902L13.6701 18.2412H17.7145H21.759V18.701V19.1607H13.2045H4.64996L4.64993 18.701ZM4.64993 9.1614V7.32245H11.8357H19.0215V7.78219V8.24192H12.2349H5.44835V9.1614V10.0809H13.1474H20.8465V7.78219V5.48349H12.7482H4.64993V5.08122V4.67895H13.2044H21.759V7.83965V11.0004H13.2044H4.64993V9.1614ZM29.5259 27.1402C29.0004 26.6947 28.9204 26.245 28.9634 23.9814C28.9956 22.2929 29.0344 21.9156 29.203 21.6567C29.5152 21.1771 29.9384 20.9555 30.5416 20.9555C31.4207 20.9555 31.944 21.4267 32.0902 22.3502L32.1676 22.8386H31.6968C31.2554 22.8386 31.226 22.8182 31.226 22.5116C31.226 21.8616 30.3924 21.5453 30.0348 22.0597C29.8914 22.266 29.8572 22.6825 29.8572 24.2256C29.8572 25.9305 29.8797 26.1566 30.0658 26.3263C30.1806 26.4309 30.4086 26.5165 30.5726 26.5165C31.0099 26.5165 31.226 26.1279 31.226 25.3416V24.6776H30.8268C30.4466 24.6776 30.4275 24.6584 30.4275 24.2753V23.873H31.283H32.1385V25.5971C32.1385 27.2342 32.1272 27.3211 31.9143 27.3211C31.7911 27.3211 31.6285 27.2049 31.5531 27.0628C31.4664 26.8996 31.3981 26.8581 31.3676 26.9503C31.2926 27.1772 30.7083 27.436 30.2709 27.436C30.0117 27.436 29.7541 27.3337 29.5259 27.1402ZM39.3225 27.2251C38.5908 26.8369 38.5147 26.5214 38.5509 24.024L38.5829 21.8187L38.9196 21.4648C39.5822 20.7685 40.7236 20.7658 41.3027 21.4592C41.6652 21.8934 41.7669 22.7735 41.6966 24.865C41.6385 26.5888 41.5376 26.8551 40.7989 27.2347C40.2965 27.4929 39.8212 27.4898 39.3225 27.2251ZM40.6295 26.2611C40.7723 26.0556 40.807 25.6445 40.807 24.1604C40.807 22.6763 40.7723 22.2651 40.6295 22.0597C40.4172 21.7543 39.9446 21.7229 39.6469 21.9944C39.4602 22.1647 39.4383 22.3926 39.4383 24.17C39.4383 25.8216 39.4684 26.1857 39.6175 26.3359C39.8836 26.604 40.4186 26.5644 40.6295 26.2611ZM44.2288 27.2347C43.4961 26.8658 43.4308 26.5698 43.4306 23.6144L43.4304 20.9997H43.8867H44.3429V23.5358C44.3429 25.0642 44.3898 26.1602 44.461 26.2942C44.5987 26.5536 45.1608 26.5974 45.3532 26.3638C45.4345 26.2651 45.4899 25.299 45.5098 23.6341L45.5405 21.0571L45.9683 21.0215L46.396 20.9858L46.3955 23.665C46.3952 26.1195 46.3765 26.375 46.1725 26.7121C45.7553 27.4016 44.9764 27.611 44.2288 27.2347ZM33.8494 24.1604V20.9997H34.7655C36.2821 20.9997 36.7733 21.352 36.8935 22.5258C36.9711 23.2825 36.7887 23.9017 36.3968 24.2123L36.1092 24.4402L36.5359 25.737C36.7705 26.4502 36.9861 27.0984 37.015 27.1774C37.0514 27.2772 36.9284 27.3211 36.6126 27.3211H36.1577L35.7164 25.9706C35.3403 24.8197 35.2372 24.6147 35.0185 24.5834C34.7645 24.547 34.7618 24.561 34.7618 25.9339V27.3211H34.3056H33.8494V24.1604ZM35.8079 23.5679C36.0723 23.3268 36.0909 22.4222 35.839 22.0597C35.7065 21.8691 35.5471 21.8042 35.2116 21.8042H34.7618V22.7812V23.7581H35.1806C35.4109 23.7581 35.6932 23.6725 35.8079 23.5679ZM48.221 24.1604V20.9997L49.1049 20.9999C50.6678 21.0002 51.2327 21.4957 51.2365 22.8695C51.2404 24.2143 50.7639 24.7925 49.6524 24.7925H49.1334V26.0568V27.3211H48.6772H48.221V24.1604ZM50.2105 23.7325C50.3168 23.5797 50.3881 23.2335 50.3881 22.8705C50.3881 22.1261 50.1299 21.8042 49.5326 21.8042H49.1334V22.8961V23.988H49.5832C49.9187 23.988 50.0781 23.9231 50.2105 23.7325ZM29.0588 16V12.8393H29.458H29.8572V16V19.1607H29.458H29.0588V16ZM31.6822 15.9934V12.8261L32.1523 12.8615L32.6224 12.8968L33.3214 14.7932L34.0204 16.6897L34.0517 14.7645L34.083 12.8394H34.5364H34.9899V16.0001V19.1608H34.5437H34.0974L33.7612 18.27C33.5763 17.7801 33.251 16.9157 33.0383 16.3491L32.6517 15.319L32.6204 17.2399L32.5892 19.1608H32.1357H31.6822L31.6822 15.9934ZM36.8149 15.9965V12.8321L38.1512 12.8645L39.4874 12.8969L39.4913 13.2417L39.4952 13.5865L38.5827 13.6439L37.6702 13.7014L37.6372 14.6445L37.6041 15.5876L38.4356 15.6215L39.267 15.6553L39.3024 16.0237L39.3377 16.392L38.504 16.4259L37.6702 16.4598L37.6381 17.8103L37.606 19.1608H37.2104H36.8148L36.8149 15.9965ZM41.0352 15.9999V12.8392H41.4344H41.8336V15.9999V19.1606H41.4344H41.0352V15.9999ZM43.6585 15.9999V12.8392H44.1063H44.5541L45.004 14.0173C45.2514 14.6652 45.576 15.5316 45.7253 15.9425L45.9968 16.6895L46.028 14.7644L46.0593 12.8392H46.5128H46.9663V15.9999V19.1606H46.5219H46.0775L45.6252 17.9826C45.3764 17.3346 45.0503 16.4683 44.9004 16.0574L44.628 15.3103L44.5967 17.2355L44.5655 19.1606H44.112H43.6585L43.6585 15.9999ZM48.7913 15.9999V12.8392H49.1905H49.5897V15.9999V19.1606H49.1905H48.7913V15.9999ZM52.2131 16.4022V13.6438H51.6428H51.0725V13.2415V12.8392H52.6123H54.1521V13.2415C54.1521 13.6416 54.1495 13.6438 53.6388 13.6438H53.1255V16.4022V19.1606H52.6693H52.2131V16.4022ZM54.5371 18.9595C54.5691 18.8489 54.8574 17.5429 55.1779 16.0574C55.4983 14.5719 55.7891 13.2401 55.8241 13.0978C55.874 12.8952 55.9687 12.8392 56.2622 12.8392C56.5605 12.8392 56.6504 12.8943 56.7042 13.1103C56.7413 13.2594 57.0311 14.5912 57.3481 16.0699C57.6652 17.5485 57.9518 18.8489 57.985 18.9595C58.0355 19.1274 57.971 19.1606 57.5947 19.1606H57.1439L56.9882 18.4998L56.8325 17.8389L56.2496 17.8047L55.6667 17.7705L55.531 18.4656L55.3953 19.1606H54.9371C54.5546 19.1606 54.4885 19.1274 54.5371 18.9595ZM56.5058 15.8787C56.3807 15.2747 56.2433 14.848 56.2006 14.9305C56.158 15.013 56.0616 15.4166 55.9865 15.8275C55.9114 16.2384 55.8238 16.6651 55.7918 16.7757C55.7426 16.9456 55.8112 16.9769 56.2335 16.9769H56.7334L56.5058 15.8787ZM29.0588 10.9519C29.0588 10.8698 30.3178 5.09346 30.3822 4.88C30.4247 4.73939 30.5607 4.67886 30.8344 4.67886C31.0498 4.67886 31.226 4.70171 31.226 4.72964C31.226 4.81612 32.4832 10.5859 32.5485 10.7991C32.6001 10.9677 32.5356 11.0003 32.1506 11.0003H31.6912L31.5498 10.3107L31.4084 9.62105H30.8097H30.2109L30.0763 10.3107L29.9416 11.0003H29.5002C29.2575 11.0003 29.0588 10.9785 29.0588 10.9519ZM31.2208 8.61538C31.2091 8.16427 30.7969 6.47291 30.7376 6.63275C30.7025 6.72758 30.6138 7.1672 30.5405 7.60969C30.4673 8.0522 30.3828 8.50475 30.3527 8.61538C30.3072 8.78299 30.3754 8.81651 30.762 8.81651C31.1298 8.81651 31.2249 8.77481 31.2208 8.61538ZM33.8494 7.83957V4.67886H34.2956H34.7419L35.077 5.56961C35.2614 6.05952 35.5867 6.92583 35.7999 7.49476L36.1876 8.52917L36.2188 6.60402L36.2501 4.67886H36.7036H37.1571V7.84617V11.0135L36.6897 10.9781L36.2224 10.9428L35.5215 9.07508C35.1359 8.04785 34.7945 7.20732 34.7627 7.20724C34.7309 7.20716 34.72 8.06054 34.7387 9.10366L34.7725 11.0002H34.3109H33.8494L33.8494 7.83957ZM38.9821 7.83957V4.67886H39.3813H39.7805V7.83957V11.0003H39.3813H38.9821V7.83957ZM41.6815 10.9236C41.6397 10.8815 41.6055 9.45622 41.6055 7.75633V4.66564L42.0835 4.701L42.5615 4.73636L43.1409 6.36696C43.4595 7.26378 43.7473 8.02487 43.7805 8.05827C43.8136 8.09167 44.093 7.34496 44.4012 6.39894L44.9617 4.67889H45.4222H45.8827L45.8586 7.81087L45.8345 10.9428L45.4309 10.9785L45.0272 11.0142V9.03035C45.0272 7.83298 44.986 7.08982 44.9233 7.15572C44.8661 7.21577 44.6446 7.83384 44.431 8.52919C44.081 9.66882 44.0163 9.79347 43.7746 9.79347C43.5339 9.79347 43.4588 9.6524 43.0407 8.41426L42.5749 7.03504L42.5437 9.01767L42.5125 11.0003H42.135C41.9274 11.0003 41.7233 10.9658 41.6815 10.9236ZM47.1257 10.7991C47.1901 10.5857 48.4491 4.80938 48.4491 4.7272C48.4491 4.70061 48.6253 4.67886 48.8406 4.67886C49.1144 4.67886 49.2503 4.73934 49.2926 4.88C49.3258 4.99062 49.6124 6.29095 49.9295 7.76962C50.2465 9.24829 50.5363 10.5801 50.5734 10.7292C50.6359 10.9799 50.607 11.0003 50.1879 11.0003H49.7349L49.5897 10.3107L49.4444 9.62105H48.8555H48.2666L48.1252 10.3107L47.9839 11.0003H47.5244C47.1398 11.0003 47.0749 10.9675 47.1257 10.7991ZM49.325 8.65643C49.2915 8.56839 49.1741 8.04018 49.0642 7.48264C48.9544 6.92509 48.8487 6.51871 48.8294 6.57957C48.8102 6.64042 48.6977 7.16864 48.5795 7.75337L48.3645 8.81651H48.8752C49.2649 8.81651 49.3715 8.77855 49.325 8.65643Z" fill="black"/>
</g>
<defs>
<clipPath id="clip0_604_8817">
<rect width="57" height="30" fill="white" transform="translate(1 1)"/>
</clipPath>
</defs>
</svg>
