<svg width="16" height="16" viewBox="0 0 16 16" fill="none" xmlns="http://www.w3.org/2000/svg">
<path d="M8 1C7.44772 1 7 1.44772 7 2C7 2.04201 7.00259 2.08342 7.00762 2.12406C5.27853 2.56545 4 4.13342 4 6V9C3.44772 9 3 9.44772 3 10C3 10.5523 3.44772 11 4 11H12C12.5523 11 13 10.5523 13 10C13 9.44772 12.5523 9 12 9V6C12 4.13342 10.7215 2.56545 8.99238 2.12406C8.99741 2.08342 9 2.04201 9 2C9 1.44772 8.55228 1 8 1Z" fill="#56B9F2"/>
<path d="M10 12C10 13.1046 9.10457 14 8 14C6.89543 14 6 13.1046 6 12H10Z" fill="#56B9F2"/>
</svg>
